<mxfile host="app.diagrams.net" modified="2021-02-05T04:00:52.430Z" agent="5.0 (Macintosh; Intel Mac OS X 11_0_1) AppleWebKit/537.36 (KHTML, like Gecko) Chrome/88.0.4324.96 Safari/537.36" etag="ZK7i3DsDPDh3j_P3f3-4" version="14.2.3" type="github">
  <diagram id="Uc_BiRIlxoFD8BJy13uh" name="Page-1">
    <mxGraphModel dx="786" dy="514" grid="1" gridSize="10" guides="1" tooltips="1" connect="1" arrows="1" fold="1" page="1" pageScale="1" pageWidth="827" pageHeight="1169" math="0" shadow="0">
      <root>
        <mxCell id="0" />
        <mxCell id="1" parent="0" />
        <mxCell id="pjf29wRHD--lvV0CsCYC-5" style="edgeStyle=orthogonalEdgeStyle;rounded=0;orthogonalLoop=1;jettySize=auto;html=1;exitX=0;exitY=0.25;exitDx=0;exitDy=0;fontSize=16;entryX=1;entryY=0.25;entryDx=0;entryDy=0;" edge="1" parent="1" source="pjf29wRHD--lvV0CsCYC-3" target="pjf29wRHD--lvV0CsCYC-8">
          <mxGeometry relative="1" as="geometry">
            <mxPoint x="470" y="240" as="targetPoint" />
          </mxGeometry>
        </mxCell>
        <mxCell id="pjf29wRHD--lvV0CsCYC-23" style="edgeStyle=orthogonalEdgeStyle;rounded=0;orthogonalLoop=1;jettySize=auto;html=1;exitX=0.5;exitY=1;exitDx=0;exitDy=0;entryX=0.5;entryY=0;entryDx=0;entryDy=0;fontSize=16;fontColor=#FF0000;" edge="1" parent="1" source="pjf29wRHD--lvV0CsCYC-3" target="pjf29wRHD--lvV0CsCYC-9">
          <mxGeometry relative="1" as="geometry" />
        </mxCell>
        <mxCell id="pjf29wRHD--lvV0CsCYC-3" value="数仓" style="rounded=0;whiteSpace=wrap;html=1;fontSize=16;fillColor=#fff2cc;strokeColor=#d6b656;" vertex="1" parent="1">
          <mxGeometry x="580" y="210" width="120" height="60" as="geometry" />
        </mxCell>
        <mxCell id="pjf29wRHD--lvV0CsCYC-7" style="edgeStyle=orthogonalEdgeStyle;rounded=0;orthogonalLoop=1;jettySize=auto;html=1;exitX=0;exitY=0.5;exitDx=0;exitDy=0;entryX=1;entryY=0.25;entryDx=0;entryDy=0;fontSize=16;" edge="1" parent="1" source="pjf29wRHD--lvV0CsCYC-6" target="pjf29wRHD--lvV0CsCYC-3">
          <mxGeometry relative="1" as="geometry">
            <Array as="points">
              <mxPoint x="890" y="165" />
              <mxPoint x="890" y="225" />
            </Array>
          </mxGeometry>
        </mxCell>
        <mxCell id="pjf29wRHD--lvV0CsCYC-6" value="XMS" style="rounded=0;whiteSpace=wrap;html=1;fontSize=16;fillColor=#f5f5f5;strokeColor=#666666;fontColor=#333333;" vertex="1" parent="1">
          <mxGeometry x="920" y="135" width="120" height="60" as="geometry" />
        </mxCell>
        <mxCell id="pjf29wRHD--lvV0CsCYC-18" style="edgeStyle=orthogonalEdgeStyle;rounded=0;orthogonalLoop=1;jettySize=auto;html=1;exitX=1;exitY=0.75;exitDx=0;exitDy=0;entryX=0;entryY=0.75;entryDx=0;entryDy=0;fontSize=16;fontColor=#FF0000;" edge="1" parent="1" source="pjf29wRHD--lvV0CsCYC-8" target="pjf29wRHD--lvV0CsCYC-3">
          <mxGeometry relative="1" as="geometry" />
        </mxCell>
        <mxCell id="pjf29wRHD--lvV0CsCYC-8" value="结算" style="rounded=0;whiteSpace=wrap;html=1;fontSize=16;fillColor=#dae8fc;strokeColor=#6c8ebf;" vertex="1" parent="1">
          <mxGeometry x="220" y="210" width="120" height="60" as="geometry" />
        </mxCell>
        <mxCell id="pjf29wRHD--lvV0CsCYC-12" style="edgeStyle=orthogonalEdgeStyle;rounded=0;orthogonalLoop=1;jettySize=auto;html=1;exitX=0;exitY=0.5;exitDx=0;exitDy=0;entryX=0.5;entryY=1;entryDx=0;entryDy=0;fontSize=16;" edge="1" parent="1" source="pjf29wRHD--lvV0CsCYC-9" target="pjf29wRHD--lvV0CsCYC-8">
          <mxGeometry relative="1" as="geometry" />
        </mxCell>
        <mxCell id="pjf29wRHD--lvV0CsCYC-9" value="GMS" style="rounded=0;whiteSpace=wrap;html=1;fontSize=16;fillColor=#d5e8d4;strokeColor=#82b366;" vertex="1" parent="1">
          <mxGeometry x="580" y="440" width="120" height="60" as="geometry" />
        </mxCell>
        <mxCell id="pjf29wRHD--lvV0CsCYC-11" value="&lt;font style=&quot;font-size: 12px&quot;&gt;3. 采集配送件数&lt;/font&gt;" style="text;html=1;align=center;verticalAlign=middle;resizable=0;points=[];autosize=1;fontSize=16;fontColor=#FF0000;" vertex="1" parent="1">
          <mxGeometry x="740" y="195" width="100" height="30" as="geometry" />
        </mxCell>
        <mxCell id="pjf29wRHD--lvV0CsCYC-13" value="&lt;span style=&quot;font-size: 12px&quot;&gt;2. 调用API，将计费规则同步给结算&lt;/span&gt;" style="text;html=1;align=center;verticalAlign=middle;resizable=0;points=[];autosize=1;fontSize=16;fontColor=#FF0000;" vertex="1" parent="1">
          <mxGeometry x="380" y="440" width="200" height="30" as="geometry" />
        </mxCell>
        <mxCell id="pjf29wRHD--lvV0CsCYC-15" style="edgeStyle=orthogonalEdgeStyle;rounded=0;orthogonalLoop=1;jettySize=auto;html=1;exitX=0.5;exitY=0;exitDx=0;exitDy=0;exitPerimeter=0;entryX=0.5;entryY=1;entryDx=0;entryDy=0;fontSize=16;" edge="1" parent="1" source="pjf29wRHD--lvV0CsCYC-14" target="pjf29wRHD--lvV0CsCYC-9">
          <mxGeometry relative="1" as="geometry" />
        </mxCell>
        <mxCell id="pjf29wRHD--lvV0CsCYC-14" value="&lt;font style=&quot;font-size: 12px&quot;&gt;运营&lt;/font&gt;" style="shape=umlActor;verticalLabelPosition=bottom;verticalAlign=top;html=1;outlineConnect=0;fontSize=16;" vertex="1" parent="1">
          <mxGeometry x="625" y="580" width="30" height="60" as="geometry" />
        </mxCell>
        <mxCell id="pjf29wRHD--lvV0CsCYC-16" value="&lt;font style=&quot;font-size: 12px&quot;&gt;1. 维护计费规则&lt;/font&gt;" style="text;html=1;align=center;verticalAlign=middle;resizable=0;points=[];autosize=1;fontSize=16;fontColor=#FF0000;" vertex="1" parent="1">
          <mxGeometry x="640" y="530" width="100" height="30" as="geometry" />
        </mxCell>
        <mxCell id="pjf29wRHD--lvV0CsCYC-17" value="&lt;font style=&quot;font-size: 12px&quot;&gt;4. 取配送件数&lt;/font&gt;" style="text;html=1;align=center;verticalAlign=middle;resizable=0;points=[];autosize=1;fontSize=16;fontColor=#FF0000;" vertex="1" parent="1">
          <mxGeometry x="413.5" y="195" width="90" height="30" as="geometry" />
        </mxCell>
        <mxCell id="pjf29wRHD--lvV0CsCYC-19" value="&lt;font style=&quot;font-size: 12px&quot;&gt;5. 结合配送件数和计费规则，计算费用。&lt;br&gt;&lt;div style=&quot;text-align: left&quot;&gt;&lt;span&gt;数仓采集计费结果。&lt;/span&gt;&lt;/div&gt;&lt;/font&gt;" style="text;html=1;align=center;verticalAlign=middle;resizable=0;points=[];autosize=1;fontSize=16;fontColor=#FF0000;" vertex="1" parent="1">
          <mxGeometry x="350" y="251" width="230" height="40" as="geometry" />
        </mxCell>
        <mxCell id="pjf29wRHD--lvV0CsCYC-21" style="edgeStyle=orthogonalEdgeStyle;rounded=0;orthogonalLoop=1;jettySize=auto;html=1;exitX=0;exitY=0.5;exitDx=0;exitDy=0;entryX=1;entryY=0.75;entryDx=0;entryDy=0;fontSize=16;fontColor=#FF0000;" edge="1" parent="1" source="pjf29wRHD--lvV0CsCYC-20" target="pjf29wRHD--lvV0CsCYC-3">
          <mxGeometry relative="1" as="geometry">
            <Array as="points">
              <mxPoint x="890" y="300" />
              <mxPoint x="890" y="255" />
            </Array>
          </mxGeometry>
        </mxCell>
        <mxCell id="pjf29wRHD--lvV0CsCYC-20" value="GIS" style="rounded=0;whiteSpace=wrap;html=1;fontSize=16;fillColor=#ffe6cc;strokeColor=#d79b00;" vertex="1" parent="1">
          <mxGeometry x="920" y="270" width="120" height="60" as="geometry" />
        </mxCell>
        <mxCell id="pjf29wRHD--lvV0CsCYC-22" value="&lt;font style=&quot;font-size: 12px&quot;&gt;6. 采集仓库位置信息&lt;/font&gt;" style="text;html=1;align=center;verticalAlign=middle;resizable=0;points=[];autosize=1;fontSize=16;fontColor=#FF0000;" vertex="1" parent="1">
          <mxGeometry x="740" y="256" width="120" height="30" as="geometry" />
        </mxCell>
        <mxCell id="pjf29wRHD--lvV0CsCYC-24" value="&lt;font style=&quot;font-size: 12px&quot;&gt;7. 按日、周、天聚合各网格站费用到三张表，&lt;br&gt;并补充网格站的省市区信息。&lt;br&gt;GMS获取计费结果。&lt;br&gt;&lt;/font&gt;" style="text;html=1;align=left;verticalAlign=middle;resizable=0;points=[];autosize=1;fontSize=16;fontColor=#FF0000;" vertex="1" parent="1">
          <mxGeometry x="640" y="330" width="260" height="70" as="geometry" />
        </mxCell>
      </root>
    </mxGraphModel>
  </diagram>
</mxfile>
